<svg id="图层_1" data-name="图层 1" xmlns="http://www.w3.org/2000/svg" viewBox="0 0 311 98.89"><defs><style>.cls-1{fill:#404040;}.cls-2{fill:#0078ff;}.cls-3{fill:#ff58bc;}.cls-4{fill:red;}</style></defs><path class="cls-1" d="M76.45,89.63l2.84,1,0,.22c-.35,3-1,5.09-2,6.39a3.64,3.64,0,0,1-2.46,1.14c-2.65,0-4.88-1.74-6.63-5.06S65.56,83,65.54,72.55H48.05v-3H68.49v2.61c0,1.81,0,3.53.09,5.09a32.76,32.76,0,0,0,7-4.69l.22-.2,1.69,2.35-.19.16A36,36,0,0,1,69,80.12a53.47,53.47,0,0,1,9.15,5.1l.22.15-1.71,2.57-.23-.18A43.12,43.12,0,0,0,68.9,83c.31,4,.82,6.65,1.58,8.19,1.21,2.61,2.63,4,4.21,4,.34,0,.66-.32,1-.89A15.34,15.34,0,0,0,76.42,90Z"/><path class="cls-1" d="M133.71,82.37h4.73v.27c0,6.53-.57,10.27-1.64,11.45a4.05,4.05,0,0,1-2.15,1.12,12.29,12.29,0,0,1-2.23.24H130l-.79-2.82h.36l1.73,0h1.52a2.44,2.44,0,0,0,1.93-.74c.28-.34.64-1.79.77-6.71h-11V98.89h-3V85.21H109.76V82.36h11.87V76.22h-10V73.37h10V67.52h3v5.85h9.8v1.44Zm-9.16-6.15v6.14h6.27l.58-6.14Z"/><path class="cls-1" d="M132.83,67.68l-.21-.11-1.55,2.26.28.14A29.13,29.13,0,0,1,138,74.64l.24.22,1.57-2.48-.18-.15A35.7,35.7,0,0,0,132.83,67.68Z"/><path class="cls-1" d="M177.5,75.34l.19.2,2-2-.19-.19a45.35,45.35,0,0,0-6.29-5.11l-.18-.13-2,2,.27.19A39.4,39.4,0,0,1,177.5,75.34Z"/><path class="cls-1" d="M191.5,72.7v5.59c0,1,.42,2.21,2.41,2.21h6.29V77.91H195c-.64,0-.73-.3-.73-.6V72.69H191.5Z"/><path class="cls-1" d="M181.83,82a13.05,13.05,0,0,0,5.43-3.29c1-1.23,1.6-3.1,1.77-5.71l0-.29h-2.69l0,.25a6.81,6.81,0,0,1-1.49,4.34,11.07,11.07,0,0,1-4.6,2.37l-.38.11L181.64,82Z"/><polygon class="cls-1" points="183.42 71.78 196.85 71.78 196.85 75.82 199.67 75.82 199.67 69.02 180.6 69.02 180.6 75.96 183.42 75.96 183.42 71.78"/><path class="cls-1" d="M176.39,83.22l.19.22,2-2-.18-.19a42.72,42.72,0,0,0-6-5.15l-.18-.14-2,2,.27.19A34.18,34.18,0,0,1,176.39,83.22Z"/><path class="cls-1" d="M194.09,86.46h6.25V83.74h-8.76V80H188.7v3.75H180v2.72h6.18a20.54,20.54,0,0,1-8,7.92l-.24.14L179.47,97l.24-.16a23.78,23.78,0,0,0,8.89-10.42h.12V98.73h2.88V86.46h.18a25.71,25.71,0,0,0,7.74,10.1l.21.18,1.9-2.35-.24-.17A21.84,21.84,0,0,1,194.09,86.46Z"/><path class="cls-1" d="M179.38,86.23l-2.47-1-.1.25a93.46,93.46,0,0,1-5.74,11.61l-.15.26,2.75,1.23.12-.22a105.81,105.81,0,0,0,5.5-11.87Z"/><path class="cls-1" d="M239.55,75.19l.19.23,2-2.07-.18-.19a43,43,0,0,0-5.62-5l-.19-.14-2.07,2,.25.19A33.12,33.12,0,0,1,239.55,75.19Z"/><polygon class="cls-1" points="246.61 76.99 249.46 76.99 249.46 73.58 255.14 73.58 255.14 76.99 258.02 76.99 258.02 73.58 262.2 73.58 262.2 70.83 258.02 70.83 258.02 67.59 255.14 67.59 255.14 70.83 249.46 70.83 249.46 67.59 246.61 67.59 246.61 70.83 242.2 70.83 242.2 73.58 246.61 73.58 246.61 76.99"/><path class="cls-1" d="M241.23,89.81c-.74.82-1.45,1.57-2.17,2.28V77.88h-7.6v2.85h4.72v13.1a1.68,1.68,0,0,1-.59,1.21l-.13.13,1.11,2.63.28-.21a41.84,41.84,0,0,0,5.46-4.88l.1-.11-.84-3.18Z"/><path class="cls-1" d="M260.37,98.63h-2.75v-2h-8.05v2h-2.78V88.68A23.59,23.59,0,0,1,243.45,91l-.24.14-1.37-2.49.23-.13a18,18,0,0,0,6.87-6.91h-7.08V78.86h8.31A22,22,0,0,0,251,75.7l.05-.25,2.89.33-.07.3c-.25,1-.48,1.94-.76,2.77h9.42V81.6H252.08a21.18,21.18,0,0,1-2.48,4.17h10.77V98.63M249.56,88.46v5.48h8.05V88.46Z"/><path class="cls-1" d="M69.51,44.6a15.87,15.87,0,0,1-11.62-4.39,15.35,15.35,0,0,1-4.48-11.47,15.79,15.79,0,0,1,4.3-11.33,14.81,14.81,0,0,1,11.21-4.54c4.77,0,8.52,1.43,11.27,4.33a15.23,15.23,0,0,1,4.13,10.92,16.67,16.67,0,0,1-.2,2.52H59.63a8.77,8.77,0,0,0,2.93,6.15,10.35,10.35,0,0,0,7.08,2.34c4.16,0,7-1.61,8.57-4.86L84,36A14.62,14.62,0,0,1,78.59,42a16,16,0,0,1-9.13,2.52Zm8.64-18.12a8.79,8.79,0,0,0-2.72-5.88A9.06,9.06,0,0,0,69,18.32a9.08,9.08,0,0,0-6.44,2.37,8.94,8.94,0,0,0-2.9,5.79Z"/><path class="cls-1" d="M105,44.6a15.87,15.87,0,0,1-11.62-4.39,15.39,15.39,0,0,1-4.48-11.47,15.79,15.79,0,0,1,4.3-11.33,14.81,14.81,0,0,1,11.21-4.54c4.77,0,8.52,1.43,11.27,4.33a15.23,15.23,0,0,1,4.13,10.92,16.67,16.67,0,0,1-.2,2.52H95.1A8.77,8.77,0,0,0,98,36.79a10.35,10.35,0,0,0,7.08,2.34c4.16,0,7-1.61,8.57-4.86l5.74,1.7A14.62,14.62,0,0,1,114.06,42a16,16,0,0,1-9.13,2.52Zm8.64-18.12a8.79,8.79,0,0,0-2.72-5.88A10.12,10.12,0,0,0,98,20.69a8.94,8.94,0,0,0-2.9,5.79Z"/><path class="cls-1" d="M143.73,42.78a16.92,16.92,0,0,1-6.64,1.43c-3.16,0-5.53-.91-7.08-2.72A11.23,11.23,0,0,1,127.67,34V19.16h-5.5V13.6h5.5V3.53h6.23V13.6h9.6v5.56h-9.6V34c0,3.07,1.43,4.62,4.33,4.62a8.85,8.85,0,0,0,4-1Z"/><path class="cls-1" d="M160.91,44.57a15.8,15.8,0,0,1-9.07-2.69,12.24,12.24,0,0,1-5.12-6.5l5.71-1.67a8.07,8.07,0,0,0,3.22,4.07,9.52,9.52,0,0,0,5.5,1.61,8.06,8.06,0,0,0,4.57-1.2,3.45,3.45,0,0,0,1.76-2.9,2.7,2.7,0,0,0-.91-2.17,8.28,8.28,0,0,0-3-1.4l-8.11-2.4q-7.2-2.14-7.2-7.73a7.55,7.55,0,0,1,3.37-6.17,13.06,13.06,0,0,1,8.16-2.58A15.49,15.49,0,0,1,168,15a11.37,11.37,0,0,1,4.83,5.5l-5.56,1.64a7.65,7.65,0,0,0-2.9-3,8.63,8.63,0,0,0-4.65-1.23A6.25,6.25,0,0,0,156,19a3.15,3.15,0,0,0-1.49,2.55q0,2,3.25,3l8,2.31a15.17,15.17,0,0,1,5.82,2.93,6.66,6.66,0,0,1,2.11,5.3,8.26,8.26,0,0,1-3.57,6.79,14.4,14.4,0,0,1-9,2.72Z"/><path class="cls-1" d="M194.06,44.54A15.57,15.57,0,0,1,182.62,40a15.3,15.3,0,0,1-4.57-11.33,15.26,15.26,0,0,1,4.57-11.3,16.76,16.76,0,0,1,22.91,0,15.3,15.3,0,0,1,4.57,11.33A15.28,15.28,0,0,1,205.53,40a15.61,15.61,0,0,1-11.44,4.54Zm7.11-8.6a9.94,9.94,0,0,0,2.81-7.2,10.06,10.06,0,0,0-2.81-7.29,9.48,9.48,0,0,0-7.11-2.9,9.37,9.37,0,0,0-7.08,2.9,10.16,10.16,0,0,0-2.78,7.29,10,10,0,0,0,2.78,7.2,9.37,9.37,0,0,0,7.08,2.9A9.48,9.48,0,0,0,201.17,35.94Z"/><path class="cls-1" d="M230.56,44.63a15.28,15.28,0,0,1-11.33-4.57,15.46,15.46,0,0,1-4.51-11.33A16.08,16.08,0,0,1,240,15.79a12.22,12.22,0,0,1,4.83,6.61L239,24.07a7.38,7.38,0,0,0-3-3.89,9.76,9.76,0,0,0-12.46,1.29,10.23,10.23,0,0,0-2.72,7.2,10.43,10.43,0,0,0,2.72,7.2,9,9,0,0,0,7,3A9.46,9.46,0,0,0,236,37.3a6.94,6.94,0,0,0,3-3.8l5.82,1.61A12.19,12.19,0,0,1,240,41.64a15.26,15.26,0,0,1-9.48,2.9Z"/><path class="cls-1" d="M251.74,7.58A3.71,3.71,0,0,1,250.6,4.8a3.7,3.7,0,0,1,1.14-2.69,4,4,0,0,1,5.62,0A3.7,3.7,0,0,1,258.5,4.8a3.71,3.71,0,0,1-1.14,2.78,4.11,4.11,0,0,1-5.62,0Zm-.38,6h6.23V43.75h-6.23Z"/><path class="cls-1" d="M279.28,44.51A14.18,14.18,0,0,1,268.57,40a15.79,15.79,0,0,1-4.3-11.33,15.76,15.76,0,0,1,4.3-11.3,14.22,14.22,0,0,1,10.71-4.54,12.5,12.5,0,0,1,10.86,5.36V13.59h6.23V43.73h-6.23V39.16a12.5,12.5,0,0,1-10.86,5.36Zm.94-5.62A9.65,9.65,0,0,0,287.3,36a10,10,0,0,0,2.9-7.35,9.89,9.89,0,0,0-2.9-7.29,9.58,9.58,0,0,0-7.05-2.9,9.39,9.39,0,0,0-7.05,2.87,10,10,0,0,0-2.75,7.29A10.27,10.27,0,0,0,273.23,36a9.37,9.37,0,0,0,7.08,2.9Z"/><path class="cls-1" d="M304.71,0H311V43.75h-6.29Z"/><polyline class="cls-2" points="0 1.78 0 9.59 9.99 22.79 18.14 12.02 10.38 1.78 0 1.78"/><polygon class="cls-3" points="26.28 22.79 18.14 12.02 9.99 22.79 18.14 33.55 26.28 22.79"/><polygon class="cls-4" points="0 35.98 0 43.76 10.41 43.76 18.13 33.55 9.99 22.79 0 35.98"/><polygon class="cls-1" points="40.6 1.82 26.28 22.79 30.02 27.71 40.31 13.08 40.31 43.75 46.83 43.75 46.83 1.82 40.6 1.82"/></svg>